<svg xmlns="http://www.w3.org/2000/svg" enable-background="new 0 0 512 512" viewBox="0 0 512 512"><linearGradient id="a" x1="30.291" x2="424" y1="257.149" y2="257.149" gradientUnits="userSpaceOnUse"><stop offset="0" stop-color="#e84d00"/><stop offset=".363" stop-color="#d43917"/><stop offset=".721" stop-color="#c62c27"/><stop offset="1" stop-color="#c1272d"/></linearGradient><path fill="url(#a)" d="M227.15,1.99c-108.72,0-196.85,88.13-196.85,196.85c0,163.96,196.85,313.47,196.85,313.47S424,353.83,424,198.84C424,90.12,335.87,1.99,227.15,1.99z M227.11,272.33c-42.02,0-76.09-34.07-76.09-76.09c0-42.02,34.07-76.09,76.09-76.09c42.02,0,76.09,34.07,76.09,76.09C303.2,238.26,269.14,272.33,227.11,272.33z"/><circle cx="367.51" cy="371.93" r="112.51" fill="#ffb600"/><linearGradient id="b" x1="346.308" x2="388.203" y1="373.336" y2="373.336" gradientUnits="userSpaceOnUse"><stop offset="0" stop-color="#373e49"/><stop offset=".476" stop-color="#2e343d"/><stop offset="1" stop-color="#282d35"/></linearGradient><path fill="url(#b)" d="M346.31,432.2c0-12.41,8.66-21.3,21.07-21.3s20.6,8.89,20.83,21.3c0,12.17-8.19,21.3-20.83,21.3S346.31,444.37,346.31,432.2z M354.03,399.2l-5.38-106.03h37.22l-5.15,106.03H354.03z"/></svg>